{
  "title": "Train To Busan 2016 720p HC ENG HDRIP x264 AC3 TiTAN",
  "uid": 15839351,
  "size": 2821523901,
  "categoryP": "video",
  "categoryS": "hd___movies",
  "magnet": "?xt=urn:btih:0793aae5670d552e7c50ed25d16e821caeaccef0&amp;dn=Train+To+Busan+2016+720p+HC+ENG+HDRIP+x264+AC3+TiTAN&amp;tr=udp%3A%2F%2Ftracker.leechers-paradise.org%3A6969&amp;tr=udp%3A%2F%2Fzer0day.ch%3A1337&amp;tr=udp%3A%2F%2Fopen.demonii.com%3A1337&amp;tr=udp%3A%2F%2Ftracker.coppersurfer.tk%3A6969&amp;tr=udp%3A%2F%2Fexodus.desync.com%3A6969",
  "seeders": 545,
  "leechers": 96,
  "uploader": "makintos13",
  "files": 2,
  "time": 1474012066,
  "description": "Train To Busan 2016 720p HC ENG HDRIP x264 AC3 TiTAN\r\n\r\nScreens:\r\n \nhttps://imgmak.com/aow\r\n \nhttps://imgmak.com/aoJ\r\n \nhttp://www.imdb.com/title/tt5700672/\r\n\r\nSource: 1080p WebHD\r\n\r\nGeneral\r\n\r\nFormat                      : Matroska\r\nFormat version              : Version 2\r\nFile size                   : 2.63 GiB\r\nDuration                    : 1 h 58 min\r\nOverall bit rate            : 3 188 kb/s\r\n\r\nVideo\r\nID                          : 1\r\nFormat                      : AVC\r\nFormat/Info                 : Advanced Video Codec\r\nFormat profile              :   \r\nFormat settings, CABAC      : No\r\nFormat settings, ReFrames   : 1 frame\r\nCodec ID                    : V_MPEG4/ISO/AVC\r\nDuration                    : 1 h 58 min\r\nBit rate                    : 3 000 kb/s\r\nWidth                       : 1 280 pixels\r\nHeight                      : 720 pixels\r\nDisplay aspect ratio        : 16:9\r\nFrame rate mode             : Constant\r\nFrame rate                  : 29.970 (30000/1001) FPS\r\nColor space                 : YUV\r\nChroma subsampling          : 4:2:0\r\nBit depth                   : 8 bits\r\nScan type                   : Progressive\r\nBits/(Pixel*Frame)          : 0.109\r\nStream size                 : 2.47 GiB (94%)\r\nDefault                     : Yes\r\nForced                      : No\r\n\r\nAudio\r\nID                          : 2\r\nFormat                      : AC-3\r\nFormat/Info                 : Audio Coding 3\r\nMode extension              : CM (complete main)\r\nFormat settings, Endianness : Big\r\nCodec ID                    : A_AC3\r\nDuration                    : 1 h 58 min\r\nBit rate mode               : Constant\r\nBit rate                    : 192 kb/s\r\nChannel(s)                  : 2 channels\r\nChannel positions           : Front: L R\r\nSampling rate               : 48.0 kHz\r\nFrame rate                  : 31.250 FPS (1536 spf)\r\nCompression mode            : Lossy\r\nStream size                 : 162 MiB (6%)\r\nLanguage                    : English\r\nDefault                     : Yes\r\nForced                      : No\r\n\r\nText\r\nID                          : 3\r\nFormat                      : UTF-8\r\nCodec ID                    : S_TEXT/UTF8\r\nCodec ID/Info               : UTF-8 Plain Text\r\nDuration                    : 1 h 53 min\r\nBit rate                    : 23 b/s\r\nCount of elements           : 829\r\nStream size                 : 19.9 KiB (0%)\r\nDefault                     : Yes\r\nForced                      : Yes",
  "parsed": {
    "xt": "urn:btih:0793aae5670d552e7c50ed25d16e821caeaccef0",
    "dn": "Train To Busan 2016 720p HC ENG HDRIP x264 AC3 TiTAN",
    "tr": [
      "udp://exodus.desync.com:6969",
      "udp://open.demonii.com:1337",
      "udp://tracker.coppersurfer.tk:6969",
      "udp://tracker.leechers-paradise.org:6969",
      "udp://zer0day.ch:1337"
    ],
    "infoHash": "0793aae5670d552e7c50ed25d16e821caeaccef0",
    "infoHashBuffer": {
      "type": "Buffer",
      "data": [
        7,
        147,
        170,
        229,
        103,
        13,
        85,
        46,
        124,
        80,
        237,
        37,
        209,
        110,
        130,
        28,
        174,
        172,
        206,
        240
      ]
    },
    "name": "Train To Busan 2016 720p HC ENG HDRIP x264 AC3 TiTAN",
    "announce": [
      "udp://exodus.desync.com:6969",
      "udp://open.demonii.com:1337",
      "udp://tracker.coppersurfer.tk:6969",
      "udp://tracker.leechers-paradise.org:6969",
      "udp://zer0day.ch:1337"
    ],
    "urlList": []
  },
  "previous": 205,
  "peers": 116,
  "last_updated": "2016-12-26T15:23:47.806Z"
}